<svg viewBox="0 0 125.66393 57.284695">
  <g transform="translate(-14.326616,-9.1155807)">
    <path class="bpmon-element" d="m 21.417969,9.1152344 -5.179688,3.3710936 -1.912109,50.470703 5.628906,3.44336 26.285156,-14.720703 -0.0039,-6.601563 L 26.308594,33.947266 41.806641,23.615234 41.107422,16.953125 Z m 2.177734,9.0097656 8.019531,3.193359 -8.351562,5.56836 z m -0.851562,22.496094 13.90039,7.763672 -14.501953,8.11914 z" />
    <path class="bpmon-element" d="m 46.910156,10.53125 -5.726562,3.201172 -0.572266,49.611328 7.564453,0.08594 0.296875,-25.808594 15.148438,-10.931641 -0.269532,-6.3125 z m 1.761719,9.873047 5.865234,3.511719 -5.955078,4.296875 z"/>
    <path class="bpmon-element" d="m 64.101562,14.587891 -6.189453,2.908203 -0.0957,38.521484 7.564453,0.01758 0.07617,-30.521484 7.498047,6.1875 5.070313,-0.230469 4.86914,-4.826172 1.115235,30.191407 7.560546,-0.279297 -1.435546,-38.808594 -6.441407,-2.546875 -8.5625,8.486328 z"/>
    <path class="bpmon-element" d="m 104.32031,12.248047 -5.826169,0.357422 -14.435547,19.882812 -0.121094,4.265625 16.44141,25.617188 6.58398,-0.388672 13.85938,-28.484375 -0.63477,-4.234375 z m -2.40234,8.517578 10.9668,11.757813 -9.77735,20.09375 -11.408201,-17.775391 z"/>
    <path class="bpmon-element" d="m 123.54883,14.914062 -7.56445,0.01953 0.0957,37.08789 7.03711,1.916016 9.30859,-15.732422 v 27.38086 h 7.56445 V 24.386719 l -7.03711,-1.925781 -9.34374,15.791015 z"/>
  </g>
</svg>
